<svg xmlns="http://www.w3.org/2000/svg" width="238.471" height="32.019" viewBox="0 0 238.471 32.019">
  <g id="Group_2843" data-name="Group 2843" transform="translate(-95.453 -51.947)">
    <g id="Group_2841" data-name="Group 2841" transform="translate(95.453 51.947)">
      <rect id="Rectangle_1542" data-name="Rectangle 1542" width="12.077" height="12.077" transform="translate(16.915 9.761)" fill="none"/>
      <path id="Path_2969" data-name="Path 2969" d="M110.081,51.947v9.761h5.134V73.784h-5.134V83.966H142.1V51.947Zm22.048,21.837H120.052V61.708h12.077Z" transform="translate(-103.138 -51.947)" fill="#65c4f2"/>
      <rect id="Rectangle_1543" data-name="Rectangle 1543" width="6.944" height="12.077" transform="translate(0 9.761)" fill="#df5695"/>
      <rect id="Rectangle_1544" data-name="Rectangle 1544" width="5.133" height="12.077" transform="translate(6.944 9.761)" fill="#0092e5"/>
      <rect id="Rectangle_1545" data-name="Rectangle 1545" width="5.133" height="12.077" transform="translate(6.944 9.761)" fill="#765ca1"/>
    </g>
    <g id="Group_2842" data-name="Group 2842" transform="translate(148.019 59.199)">
      <path id="Path_2970" data-name="Path 2970" d="M206.2,68.722a1.457,1.457,0,0,1,1.446-1.5,1.484,1.484,0,1,1,0,2.968A1.451,1.451,0,0,1,206.2,68.722Zm.279,6.089a.5.5,0,0,1,.482-.482H208.4a.5.5,0,0,1,.482.482V84a.5.5,0,0,1-.482.482h-1.446a.5.5,0,0,1-.482-.482Z" transform="translate(-206.196 -67.225)" fill="#1a1311"/>
      <path id="Path_2971" data-name="Path 2971" d="M223.086,82.393a.5.5,0,0,1,.482-.482h.736a.411.411,0,0,1,.406.3l.3.863a5.191,5.191,0,0,1,3.552-1.421c3.095,0,4.237,2.182,4.237,4.82v5.1a.5.5,0,0,1-.482.482h-1.446a.482.482,0,0,1-.482-.482v-5.2c0-1.624-.787-2.512-2.106-2.512a3.358,3.358,0,0,0-2.817,1.523v6.19c0,.33-.152.482-.583.482h-1.319a.5.5,0,0,1-.482-.482Z" transform="translate(-215.069 -74.807)" fill="#1a1311"/>
      <path id="Path_2972" data-name="Path 2972" d="M254.189,80.131h-1.066a.482.482,0,0,1-.482-.482V78.507a.467.467,0,0,1,.482-.482h1.066V75.208a.5.5,0,0,1,.482-.482l1.446-.026a.477.477,0,0,1,.457.482v2.841h2.588a.467.467,0,0,1,.482.482v1.142a.482.482,0,0,1-.482.482h-2.588v5.023c0,.863.18,1.015.812,1.015a3.112,3.112,0,0,0,1.547-.457.38.38,0,0,1,.584.228l.456,1.116a.42.42,0,0,1-.228.609,7.781,7.781,0,0,1-2.969.761c-2,0-2.588-1.218-2.588-3.019Z" transform="translate(-230.595 -71.152)" fill="#1a1311"/>
      <path id="Path_2973" data-name="Path 2973" d="M280.8,81.169a5.332,5.332,0,1,1-5.125,5.3A5.248,5.248,0,0,1,280.8,81.169Zm0,8.474a3.022,3.022,0,0,0,2.867-3.171,2.875,2.875,0,1,0-5.734,0A3.021,3.021,0,0,0,280.8,89.643Z" transform="translate(-242.697 -74.55)" fill="#1a1311"/>
      <path id="Path_2974" data-name="Path 2974" d="M308.771,82.932l.843-1.452a.543.543,0,0,1,.8-.164,7.753,7.753,0,0,0,3.536,1.452,1.955,1.955,0,0,0,2.131-1.8c0-1.195-1.007-2.015-2.974-2.811-2.2-.89-4.4-2.3-4.4-5.059,0-2.084,1.546-4.5,5.27-4.5a8.243,8.243,0,0,1,4.684,1.569.58.58,0,0,1,.141.773l-.89,1.335a.616.616,0,0,1-.82.281,7.712,7.712,0,0,0-3.256-1.288,1.865,1.865,0,0,0-2.061,1.64c0,1.1.866,1.85,2.763,2.623,2.272.913,4.9,2.272,4.9,5.293,0,2.413-2.084,4.638-5.387,4.638a7.537,7.537,0,0,1-5.153-1.827C308.677,83.423,308.56,83.306,308.771,82.932Z" transform="translate(-260.023 -67.946)" fill="#1a1311"/>
      <path id="Path_2975" data-name="Path 2975" d="M343.757,71.9h-3.583a.445.445,0,0,1-.445-.445v-1.92a.444.444,0,0,1,.445-.445h10.235a.444.444,0,0,1,.445.445v1.92a.445.445,0,0,1-.445.445h-3.584V85.041a.46.46,0,0,1-.445.445H344.2a.461.461,0,0,1-.445-.445Z" transform="translate(-276.345 -68.206)" fill="#1a1311"/>
      <path id="Path_2976" data-name="Path 2976" d="M367.7,84.618l7.284-15.762a.421.421,0,0,1,.4-.258h.234a.4.4,0,0,1,.4.258l7.214,15.762a.414.414,0,0,1-.4.609h-2.038a.674.674,0,0,1-.679-.468l-1.148-2.53h-7l-1.147,2.53a.707.707,0,0,1-.679.468H368.1A.414.414,0,0,1,367.7,84.618Zm10.118-4.988-2.342-5.153h-.07l-2.3,5.153Z" transform="translate(-291.014 -67.946)" fill="#1a1311"/>
      <path id="Path_2977" data-name="Path 2977" d="M409.886,69.02a.44.44,0,0,1,.445-.422h.586L420.66,78.95h.023V69.277a.445.445,0,0,1,.445-.445h2.155a.46.46,0,0,1,.445.445V85.04a.44.44,0,0,1-.445.422h-.562l-9.79-10.75h-.024V84.782a.444.444,0,0,1-.445.445h-2.131a.461.461,0,0,1-.445-.445Z" transform="translate(-313.201 -67.946)" fill="#1a1311"/>
      <path id="Path_2978" data-name="Path 2978" d="M451.971,69.537a.44.44,0,0,1,.422-.445h5.551a8.2,8.2,0,1,1,0,16.394h-5.551a.44.44,0,0,1-.422-.445Zm5.691,13.092a5.352,5.352,0,0,0,0-10.7h-2.67v10.7Z" transform="translate(-335.309 -68.206)" fill="#1a1311"/>
      <path id="Path_2979" data-name="Path 2979" d="M487.971,84.618l7.284-15.762a.42.42,0,0,1,.4-.258h.234a.4.4,0,0,1,.4.258L503.5,84.618a.414.414,0,0,1-.4.609h-2.038a.674.674,0,0,1-.679-.468l-1.148-2.53h-7l-1.147,2.53a.707.707,0,0,1-.68.468h-2.037A.413.413,0,0,1,487.971,84.618Zm10.118-4.988-2.342-5.153h-.071l-2.3,5.153Z" transform="translate(-354.196 -67.946)" fill="#1a1311"/>
      <path id="Path_2980" data-name="Path 2980" d="M530.156,69.537a.444.444,0,0,1,.445-.445h6.7a5.073,5.073,0,0,1,5.106,5.035,5.169,5.169,0,0,1-3.466,4.731l3.208,5.949a.443.443,0,0,1-.4.679h-2.46a.4.4,0,0,1-.375-.21L535.8,79.069h-2.6v5.972a.46.46,0,0,1-.445.445H530.6a.444.444,0,0,1-.445-.445Zm6.886,7.026a2.386,2.386,0,0,0,2.319-2.389,2.331,2.331,0,0,0-2.319-2.272h-3.818v4.661Z" transform="translate(-376.382 -68.206)" fill="#1a1311"/>
      <path id="Path_2981" data-name="Path 2981" d="M567.947,69.537a.44.44,0,0,1,.422-.445h5.551a8.2,8.2,0,1,1,0,16.394h-5.551a.44.44,0,0,1-.422-.445Zm5.691,13.092a5.352,5.352,0,0,0,0-10.7h-2.67v10.7Z" transform="translate(-396.235 -68.206)" fill="#1a1311"/>
    </g>
  </g>
</svg>
