<svg id="Group_20" data-name="Group 20" xmlns="http://www.w3.org/2000/svg" width="38.801" height="38.801" viewBox="0 0 38.801 38.801">
  <path id="Path_3002" data-name="Path 3002" d="M19.4,0A19.4,19.4,0,1,1,0,19.4,19.4,19.4,0,0,1,19.4,0Z" fill="#9b9fa0"/>
  <rect id="Rectangle_100" data-name="Rectangle 100" width="14.109" height="11.288" transform="translate(12.346 13.521)" fill="none"/>
  <path id="Path_3001" data-name="Path 3001" d="M15,8v8H5V8H15m1-2H4A1,1,0,0,0,3,7V17a1,1,0,0,0,1,1H16a1,1,0,0,0,1-1V13.5l4,4V6.5l-4,4V7A1,1,0,0,0,16,6Z" transform="translate(8.2 7)" fill="#fff"/>
</svg>
