<svg xmlns="http://www.w3.org/2000/svg" width="38.801" height="38.801" viewBox="0 0 38.801 38.801">
  <g id="Group_2864" data-name="Group 2864" transform="translate(-1971 -1584)">
    <g id="Group_2863" data-name="Group 2863" transform="translate(1971 1584)">
      <circle id="Ellipse_3" data-name="Ellipse 3" cx="19.4" cy="19.4" r="19.4" fill="#df5695"/>
    </g>
    <g id="translate_white_24dp" transform="translate(1979 1592)">
      <path id="Path_2991" data-name="Path 2991" d="M0,0H24V24H0Z" fill="none"/>
      <path id="Path_2992" data-name="Path 2992" d="M12.87,15.07l-2.54-2.51.03-.03A17.519,17.519,0,0,0,14.07,6H17V4H10V2H8V4H1V5.99H12.17A15.713,15.713,0,0,1,9,11.35,15.645,15.645,0,0,1,6.69,8h-2a17.562,17.562,0,0,0,2.98,4.56L2.58,17.58,4,19l5-5,3.11,3.11.76-2.04ZM18.5,10h-2L12,22h2l1.12-3h4.75L21,22h2Zm-2.62,7,1.62-4.33L19.12,17H15.88Z" fill="#fff"/>
    </g>
  </g>
</svg>
