<svg id="btn-send" xmlns="http://www.w3.org/2000/svg" width="40" height="40" viewBox="0 0 40 40">
  <circle id="BG" cx="20" cy="20" r="20" fill="#5da3b2"/>
  <g id="Group_10" data-name="Group 10" transform="translate(14 10)">
    <g id="mic">
      <g id="Group_27" data-name="Group 27">
        <path id="Path_2" data-name="Path 2" d="M12,1A2.847,2.847,0,0,0,9,3.664v7.1a2.847,2.847,0,0,0,3,2.664,2.847,2.847,0,0,0,3-2.664v-7.1A2.847,2.847,0,0,0,12,1Z" transform="translate(-5.781 -1)" fill="none" stroke="#fff" stroke-linecap="round" stroke-linejoin="round" stroke-width="2"/>
        <path id="Path_3" data-name="Path 3" d="M17.438,12c0,3.866-2.784,7-6.219,7S5,15.866,5,12" transform="translate(-5 -2.699)" fill="none" stroke="#fff" stroke-linecap="round" stroke-linejoin="round" stroke-width="2"/>
        <line id="Line_3" data-name="Line 3" y2="4" transform="translate(6.219 16.546)" fill="none" stroke="#fff" stroke-linecap="round" stroke-linejoin="round" stroke-width="2"/>
        <line id="Line_4" data-name="Line 4" x2="6.438" transform="translate(3 20.546)" fill="none" stroke="#fff" stroke-linecap="round" stroke-linejoin="round" stroke-width="2"/>
      </g>
    </g>
  </g>
</svg>
