<svg id="Group_2869" data-name="Group 2869" xmlns="http://www.w3.org/2000/svg" width="38.801" height="38.801" viewBox="0 0 38.801 38.801">
  <g id="Group_20" data-name="Group 20">
    <circle id="Ellipse_4" data-name="Ellipse 4" cx="19.4" cy="19.4" r="19.4" fill="#9b9fa0"/>
    <rect id="Rectangle_100" data-name="Rectangle 100" width="14.109" height="11.288" transform="translate(12.346 13.521)" fill="none"/>
  </g>
  <path id="Path_2999" data-name="Path 2999" d="M12,14a2.987,2.987,0,0,0,2.99-3L15,5A3,3,0,0,0,9,5v6A3,3,0,0,0,12,14Zm5.3-3A5.189,5.189,0,0,1,12,16.1,5.189,5.189,0,0,1,6.7,11H5a6.984,6.984,0,0,0,6,6.72V21h2V17.72A6.968,6.968,0,0,0,19,11Z" transform="translate(7.601 8)" fill="#fff"/>
</svg>
