<svg xmlns="http://www.w3.org/2000/svg" width="38.801" height="38.801" viewBox="0 0 38.801 38.801">
  <g id="Group_2870" data-name="Group 2870" transform="translate(-1819 -1565)">
    <g id="Group_2866" data-name="Group 2866" transform="translate(1819 1565)">
      <circle id="Ellipse_3" data-name="Ellipse 3" cx="19.4" cy="19.4" r="19.4" fill="#df5695"/>
    </g>
    <g id="record_voice_over_white_24dp" transform="translate(1826 1572)">
      <path id="Path_2996" data-name="Path 2996" d="M0,0H24V24H0Z" fill="none"/>
      <path id="Path_2997" data-name="Path 2997" d="M9,13A4,4,0,1,0,5,9,4,4,0,0,0,9,13ZM9,7A2,2,0,1,1,7,9,2.006,2.006,0,0,1,9,7Zm0,8c-2.67,0-8,1.34-8,4v2H17V19C17,16.34,11.67,15,9,15ZM3,19c.22-.72,3.31-2,6-2s5.8,1.29,6,2ZM15.08,7.05a3.317,3.317,0,0,1,0,3.89l1.68,1.69a5.117,5.117,0,0,0,0-7.27L15.08,7.05ZM20.07,2,18.44,3.63a7.978,7.978,0,0,1,0,10.74L20.07,16A9.829,9.829,0,0,0,20.07,2Z" fill="#fff"/>
    </g>
  </g>
</svg>
