<svg xmlns="http://www.w3.org/2000/svg" width="38.801" height="38.801" viewBox="0 0 38.801 38.801">
  <g id="Group_2859" data-name="Group 2859" transform="translate(-1819.232 -1584.339)">
    <g id="Group_18" data-name="Group 18" transform="translate(1819.232 1584.339)">
      <circle id="Ellipse_3" data-name="Ellipse 3" cx="19.4" cy="19.4" r="19.4" fill="#a09b9d"/>
    </g>
    <path id="Path_76" data-name="Path 76" d="M14.09,10.57V12.7a1.417,1.417,0,0,1-1.411,1.423c-.045,0-.089,0-.133-.005a14.017,14.017,0,0,1-6.114-2.175A13.811,13.811,0,0,1,2.181,7.686,14.028,14.028,0,0,1,.006,1.544,1.417,1.417,0,0,1,1.29.006C1.331,0,1.374,0,1.416,0H3.541A1.417,1.417,0,0,1,4.958,1.219a9.077,9.077,0,0,0,.5,1.991A1.417,1.417,0,0,1,5.135,4.7l-.9.9a11.333,11.333,0,0,0,4.25,4.25l.9-.9a1.416,1.416,0,0,1,1.495-.318,9.11,9.11,0,0,0,1.991.5A1.417,1.417,0,0,1,14.09,10.57Z" transform="translate(1848.68 1604.283) rotate(135)" fill="#fff" opacity="0.996"/>
  </g>
</svg>
